<!-- Generator: Adobe Illustrator 19.0.0, SVG Export Plug-In  -->
<svg version="1.1"
	 xmlns="http://www.w3.org/2000/svg" xmlns:xlink="http://www.w3.org/1999/xlink" xmlns:a="http://ns.adobe.com/AdobeSVGViewerExtensions/3.0/"
	 x="0px" y="0px" width="594.668px" height="168.332px" viewBox="0 0 594.668 168.332"
	 style="enable-background:new 0 0 594.668 168.332;" xml:space="preserve">
<style type="text/css">
	.st0{fill:#FFFFFF;}
</style>
<defs>
</defs>
<path id="XMLID_15_" class="st0" d="M15.685,11.383c11.242-11.03,18.208-11.36,18.208-11.36s2.193-0.329,7.513,1.537
	c5.319,1.865,5.539,4.72,5.539,4.72v80.731c0.682,22.595-4.936,31.284-11.682,37.321c-3.834,3.114-6.914,3.513-7.293,3.513
	c-0.933,0-1.646-0.11-1.811-1.371c-0.164-1.263,0.987-4.556,0.987-4.556c3.4-8.617,3.126-23.546,3.126-23.546l0.329-86.989
	c0,0,0.273-1.591-1.097-1.098C16.234,21.701,14.588,37.782,14.15,45.576c-0.22,11.69,4.853,17.726,4.853,17.726
	s1.316,1.152,1.151,2.799c0,2.223-2.057,2.059-2.057,2.059c-4.99-0.466-12.942-6.119-15.794-12.925C-0.06,50.206,0,44.78,0,44.78
	C0.165,37.946,4.443,22.415,15.685,11.383z M594.668,88.521c0,25.964-15.729,25.548-15.729,25.548
	c-14.965,0.534-18.795-15.283-19.738-31.362c-0.711-12.091,0-25.548,0-25.548s-0.104-0.623-0.516,0
	c-5.004,9.087-8.406,22.874-10.074,33.543c-1.211,7.744-1.336,14.229-1.336,14.229s0.205,1.454-1.029,2.285
	c-8.121,3.738-13.363-1.559-15.215-7.479c-2.467-5.607-3.906-39.358-3.906-41.124c0-1.766-1.439-0.416-1.439-0.416
	c-11.205,18.798-11.309,46.422-11.309,52.03c0,5.607-9.561,3.842-9.561,3.842c-8.121-0.623-7.812-4.569-7.812-4.569l-0.369-6.702
	c-2.822,5.206-8.068,11.966-16.135,11.444c-12.211-0.789-14.58-13.434-14.758-15.568c0,0-6.08,15.746-22.805,15.568
	c-11.359-0.179-15.92-11.922-15.92-11.922s-4.561,12.277-15.738,11.832c-11.18-0.444-20.391-13.344-19.676-30.068
	c0.715-16.725,3.309-25.087,3.309-25.087s0.895-1.691-0.627-1.779c-1.518-0.089-11.178,0.178-11.178,0.178
	s-5.455,21.885-28.529,49.106c0,0,0.186,8.509,0.178,17.971c-0.012,17.894-2.234,41.901-26.471,43.859
	c-20.967-1.417-19.785-17.583-19.785-17.583c-0.5-4.75,2.5-13.5,15-25.25s17.5-16.25,17.5-16.25l-0.5-7.5
	c-8,13.25-20.25,12.5-20.25,12.5s-9.459,1.923-17.412-12.15c-2.342,4.821-7.656,13.045-16.35,12.088
	c-12.215-1.345-14.641-13.535-14.82-15.687c0,0-6.107,15.866-22.902,15.687c-11.406-0.18-15.986-12.012-15.986-12.012
	c-1.322-2.396-2.342-6.032-2.873-8.175c-0.135,0.438-0.293,0.913-0.51,1.471c-2.586,6.62-8.992,18.159-18.819,18.309
	c-18.057,0-18.818-28.009-18.818-28.009c-5.222,12.424-15.447,28.336-34.483,28.228c-19.036-0.11-21.32-6.976-21.32-7.956
	c0-0.982-0.327-2.071,1.849-5.232c2.176-3.16,4.025-4.468,5.548-4.468c1.523,0,4.243,2.288,4.243,2.288s4.133,4.032,8.811,4.032
	c5.982-0.218,7.288-5.013,7.724-9.916c0.435-4.905-3.046-10.136-7.833-14.496c-4.786-4.358-8.484-7.628-8.484-7.628
	c-6.852,11.553-12.074,19.398-15.882,26.156c-9.246,15.039-18.422,17.366-21.973,16.893c-4.896-0.654-9.573-5.668-9.791-20.272
	c-0.217-14.603,1.089-39.56,1.089-40.868c0-1.309-1.196-0.654-1.196-0.654c-18.275,19.4-23.715,59.288-23.715,60.051
	c0,0.764-1.631,1.635-3.264,1.635c-1.631,0,0.545-0.108-5.982-0.327c-6.526-0.218-6.092-12.642-6.092-12.642l0.435-59.399
	c0.108-1.962,1.958-2.833,8.158-1.197c6.201,1.634,5.983,3.705,5.983,3.705l-0.218,34.439c15.99-47.191,28.064-39.78,35.352-36.184
	c7.289,3.597,6.31,8.828,6.31,8.828s-0.762,25.938-1.088,35.094c-0.326,9.155,0.98,12.75,3.046,13.078
	c5.113,1.199,23.279-33.895,23.279-33.895c-8.051-8.72-3.656-19.361,2.61-23.978c4.257-3.137,9.464-3.487,9.464-3.487
	s8.158-0.436,7.941,6.431c0.216,7.521-8.159,16.675-8.159,16.675c16.208,11.552,23.822,17.656,25.02,26.592
	c0.536,4.285-0.436,6.975-0.436,6.975c11.531-10.025,12.4-21.251,12.4-21.251l0.218-37.492l-17.078-0.217
	c0,0-1.305-0.109-1.522-3.27c0-5.996,3.154-8.503,3.154-8.503l16.316,0.219c0,0,0.545-16.893,0.653-19.618
	c0.543-3.923,3.045-4.469,10.225-2.615c7.18,1.853,7.18,3.487,7.18,3.487l-0.871,19.727c0,0,17.95,0.872,20.343,1.09
	c2.395,0.218,3.154,0.873,2.611,4.904c-0.545,4.032-2.938,5.015-2.938,5.015l-20.233,0.436l-1.414,43.486
	c0,6.756,0.326,22.668,6.636,22.559c8.811,0.436,14.033-19.29,14.033-19.29l0.098-0.158c-0.1-3.075-0.035-6.762,0.4-10.9
	c1.672-15.849,8.736-34.421,24.967-34.421c0,0,9.881-0.358,15.09,9.501l0.18-3.585c0,0-0.359-4.303,6.467-3.228
	c6.826,1.076,9.16,3.766,8.98,5.916c0,0-1.256,27.609-0.537,43.923c0.914,9.479,2.541,15.081,7.363,14.7
	c4.154-0.606,7.107-6.289,8.893-11.129c-6.035-50.2,21.439-56.287,21.439-56.287s12.16-0.891,17.705,9.252l0.178-3.381
	c0,0-0.535-4.447,5.906-3.202c0,0,2.682,0.356,5.543,1.423c2.861,1.067,3.756,1.779,3.756,4.448c0,2.669-0.537,49.573-0.537,49.573
	s14.309-19.215,17.887-37.897c0,0-5.008-3.736-4.648-9.074c0.355-5.338,3.039-11.743,10.908-11.743
	c7.871,0,8.228,6.939,6.977,11.743c0,0,6.617-0.89,12.342-2.312c5.725-1.424,13.416-2.313,13.951,6.583
	c0.357,3.203-1.074,5.693-1.074,5.693s-4.471,19.75-3.756,27.756c0.717,8.007,2.863,20.105,9.123,18.682
	c6.26-1.423,8.406-10.319,8.406-10.319s-2.516-10.295-1.252-22.24c1.664-15.728,8.699-34.161,24.861-34.161
	c0,0,9.838-0.355,15.025,9.43l0.18-3.559c0,0-0.359-4.27,6.439-3.203c6.795,1.068,9.121,3.737,8.941,5.871
	c0,0-1.252,27.401-0.535,43.593c0.91,9.407,2.531,14.967,7.332,14.589c4.631-0.136,8.533-7.964,10.949-14.344l-0.029-2.361
	l0.154-46.266c0.385-2.648,2.775-2.804,2.775-2.804l5.551,0.856c7.787,1.169,6.707,4.128,6.707,4.128v26.171
	c5.783-17.759,8.561-24.535,11.182-29.053c2.234-3.851,9.561-1.324,9.561-1.324s7.941,2.104,8.096,9.425
	c-0.23,12.073,1.465,31.74,1.465,31.74c0.029,0.313,0.299,0.409,0.449,0.272c0.119-0.106,0.129-0.429,0.129-0.429
	c1.58-12.656,8.777-33.428,11.656-38.827c2.877-5.4,11.205-1.559,11.205-1.559c9.973,3.428,8.635,9.347,8.635,9.347
	c-2.98,50.783,3.289,54.106,6.992,54.418c3.699,0.312,5.654-4.466,6.477-6.75c0.822-2.285,1.85-7.27,2.467-9.243
	c0.615-1.973,2.57-2.077,2.57-2.077S594.668,86.652,594.668,88.521z M257.836,49.647c-3.502,0.135-11.721,2.421-13.201,25.278
	c-1.48,22.856,4.58,28.772,9.699,29.445c5.121,0.672,14.145-7.529,14.684-31.866C269.559,48.168,257.836,49.647,257.836,49.647z
	 M329.5,49.75c-3.555,0.137-12.5,3.25-14.52,25.378c-1.502,23.157,4.648,29.151,9.848,29.833
	c5.197,0.681,14.359-7.628,14.904-32.285C340.281,48.018,329.5,49.75,329.5,49.75z M341.5,120.749c-20.25,17.5-22,30-22,30
	s-2,10.25,7.75,10.75c11.717,1.188,13.684-13.043,14-25.5C341.401,130.117,341.5,120.749,341.5,120.749z M452.526,50.459
	c-3.502,0.135-11.723,2.421-13.203,25.278c-1.48,22.856,4.58,28.772,9.701,29.445c5.119,0.672,14.145-7.529,14.682-31.866
	C464.246,48.979,452.526,50.459,452.526,50.459z"/>
</svg>