<!-- Generator: Adobe Illustrator 19.0.0, SVG Export Plug-In  -->
<svg version="1.1"
	 xmlns="http://www.w3.org/2000/svg" xmlns:xlink="http://www.w3.org/1999/xlink" xmlns:a="http://ns.adobe.com/AdobeSVGViewerExtensions/3.0/"
	 x="0px" y="0px" width="81.986px" height="81.986px" viewBox="0 0 81.986 81.986"
	 style="enable-background:new 0 0 81.986 81.986;" xml:space="preserve">
<style type="text/css">
	.st0{fill:#FFFFFF;}
</style>
<defs>
</defs>
<g id="XMLID_9_">
	<path id="XMLID_14_" class="st0" d="M40.993,7.386c10.946,0,12.242,0.042,16.565,0.239c3.997,0.182,6.167,0.85,7.612,1.412
		c1.913,0.744,3.279,1.632,4.713,3.066c1.434,1.434,2.323,2.8,3.066,4.714c0.561,1.444,1.229,3.615,1.412,7.612
		c0.197,4.323,0.239,5.619,0.239,16.565s-0.042,12.242-0.239,16.565c-0.182,3.997-0.85,6.167-1.412,7.612
		c-0.744,1.913-1.632,3.279-3.066,4.713c-1.434,1.434-2.8,2.323-4.713,3.066c-1.445,0.561-3.615,1.229-7.612,1.412
		C53.236,74.558,51.94,74.6,40.993,74.6s-12.243-0.042-16.565-0.239c-3.997-0.182-6.167-0.85-7.612-1.412
		c-1.913-0.744-3.279-1.632-4.713-3.066c-1.434-1.434-2.323-2.8-3.066-4.713c-0.561-1.445-1.229-3.615-1.412-7.612
		c-0.197-4.323-0.239-5.619-0.239-16.565s0.042-12.242,0.239-16.565c0.182-3.997,0.85-6.167,1.412-7.612
		c0.744-1.913,1.632-3.279,3.066-4.713c1.434-1.434,2.8-2.323,4.714-3.066c1.444-0.561,3.615-1.229,7.612-1.412
		C28.751,7.428,30.047,7.386,40.993,7.386 M40.993,0C29.86,0,28.464,0.047,24.092,0.247c-4.363,0.199-7.343,0.892-9.951,1.905
		C11.445,3.2,9.159,4.601,6.88,6.88C4.601,9.159,3.2,11.445,2.152,14.141c-1.013,2.608-1.706,5.587-1.905,9.951
		C0.047,28.464,0,29.86,0,40.993c0,11.133,0.047,12.529,0.247,16.901c0.199,4.363,0.892,7.343,1.905,9.951
		c1.048,2.696,2.449,4.982,4.728,7.261c2.279,2.279,4.565,3.681,7.261,4.728c2.608,1.013,5.587,1.706,9.951,1.905
		c4.372,0.2,5.768,0.247,16.901,0.247s12.529-0.047,16.901-0.247c4.363-0.199,7.343-0.892,9.951-1.905
		c2.696-1.048,4.982-2.449,7.261-4.728c2.279-2.279,3.681-4.565,4.728-7.261c1.013-2.608,1.706-5.587,1.905-9.951
		c0.199-4.372,0.247-5.768,0.247-16.901s-0.047-12.529-0.247-16.901c-0.199-4.363-0.892-7.343-1.905-9.951
		c-1.048-2.696-2.449-4.982-4.728-7.261c-2.279-2.279-4.565-3.681-7.261-4.728c-2.608-1.013-5.587-1.706-9.951-1.905
		C53.522,0.047,52.126,0,40.993,0L40.993,0z"/>
	<path id="XMLID_11_" class="st0" d="M40.993,19.943c-11.626,0-21.051,9.425-21.051,21.051s9.425,21.051,21.051,21.051
		s21.051-9.425,21.051-21.051S52.619,19.943,40.993,19.943z M40.993,54.658c-7.547,0-13.664-6.118-13.664-13.664
		s6.118-13.664,13.664-13.664s13.664,6.118,13.664,13.664S48.54,54.658,40.993,54.658z"/>
	<circle id="XMLID_10_" class="st0" cx="62.875" cy="19.111" r="4.919"/>
</g>
</svg>