<!-- Generator: Adobe Illustrator 19.0.0, SVG Export Plug-In  -->
<svg version="1.1"
	 xmlns="http://www.w3.org/2000/svg" xmlns:xlink="http://www.w3.org/1999/xlink" xmlns:a="http://ns.adobe.com/AdobeSVGViewerExtensions/3.0/"
	 x="0px" y="0px" width="480px" height="57.917px" viewBox="0 0 480 57.917" style="enable-background:new 0 0 480 57.917;"
	 xml:space="preserve">
<style type="text/css">
	.st0{fill:#2B5B83;}
	.st1{fill:#25292C;}
	.st2{fill:#16181A;}
	.st3{fill:#FFFFFF;}
	.st4{opacity:0.8;}
</style>
<defs>
</defs>
<rect id="XMLID_80_" x="191.333" class="st0" width="95.667" height="57.917"/>
<rect id="XMLID_77_" x="95.667" y="0.042" class="st1" width="95.667" height="57.833"/>
<rect id="XMLID_74_" y="0.042" class="st2" width="95.667" height="57.833"/>
<rect id="XMLID_71_" x="287" class="st1" width="193" height="57.917"/>
<path id="XMLID_70_" class="st3" d="M46.75,13.625l-17.667,17.75l3.167,3.167L35,31.625v12.667h8v-8.167c0,0-0.333-3.833,4.25-3.833
	s4.083,4.083,4.083,4.083v7.917h7.75V31.625l3.083,3.083l2.958-2.958L46.75,13.625z"/>
<g id="XMLID_58_">
	<circle id="XMLID_69_" class="st3" cx="238.958" cy="29.042" r="7.839"/>
	<path id="XMLID_66_" class="st3" d="M253.25,11.75h-28.417c-1.657,0-3,1.343-3,3v28.417c0,1.657,1.343,3,3,3h28.417
		c1.657,0,3-1.343,3-3V14.75C256.25,13.093,254.907,11.75,253.25,11.75z M238.958,40.25c-6.19,0-11.208-5.018-11.208-11.208
		s5.018-11.208,11.208-11.208c6.19,0,11.208,5.018,11.208,11.208S245.149,40.25,238.958,40.25z"/>
</g>
<g id="XMLID_50_" class="st4">
	<path id="XMLID_53_" class="st3" d="M141.417,13.25c-7.502,0-13.583,6.081-13.583,13.583s6.081,13.583,13.583,13.583
		S155,34.335,155,26.833S148.919,13.25,141.417,13.25z M141.417,36.333c-5.247,0-9.5-4.253-9.5-9.5s4.253-9.5,9.5-9.5
		s9.5,4.253,9.5,9.5S146.663,36.333,141.417,36.333z"/>
	<polygon id="XMLID_52_" class="st3" points="148.917,37.583 155.917,44.667 158.917,41.125 151.667,34.833 	"/>
</g>
<g id="XMLID_22_" class="st4">
	<path id="XMLID_46_" class="st3" d="M334.5,13.292c-8.652,0-15.667,7.014-15.667,15.667s7.014,15.667,15.667,15.667
		c8.653,0,15.667-7.014,15.667-15.667S343.152,13.292,334.5,13.292z M334.625,38.042c-11.5-7.333-8.333-12.75-8.333-12.75
		s1.208-2.917,4.125-2.917s4.208,1.75,4.208,1.75s1.292-1.75,4.208-1.75c2.917,0,4.125,2.917,4.125,2.917
		S346.125,30.708,334.625,38.042z"/>
	<polygon id="XMLID_23_" class="st3" points="342.5,42.125 350.958,44.625 348.458,34.875 	"/>
</g>
<g id="XMLID_16_" class="st4">
	<ellipse id="XMLID_21_" class="st3" cx="431.208" cy="18.865" rx="6.125" ry="4.875"/>
	<ellipse id="XMLID_20_" class="st3" cx="431.208" cy="22.783" rx="6.125" ry="6.873"/>
	<rect id="XMLID_19_" x="425.083" y="18.745" class="st3" width="12.25" height="4.038"/>
	<path id="XMLID_18_" class="st3" d="M444.854,38.74c0,3.21-6.1,2.812-13.625,2.812s-13.625,0.398-13.625-2.812
		s6.1-5.812,13.625-5.812S444.854,35.529,444.854,38.74z"/>
	<rect id="XMLID_17_" x="417.604" y="38.598" class="st3" width="27.25" height="5.33"/>
</g>
</svg>