<?xml version="1.0" encoding="utf-8"?>
<!-- Generator: Adobe Illustrator 19.0.0, SVG Export Plug-In . SVG Version: 6.00 Build 0)  -->
<svg version="1.1" id="Layer_1" xmlns="http://www.w3.org/2000/svg" xmlns:xlink="http://www.w3.org/1999/xlink" x="0px" y="0px"
	 viewBox="0 0 283.5 283.5" style="enable-background:new 0 0 283.5 283.5;" xml:space="preserve">
<style type="text/css">
	.st0{fill-rule:evenodd;clip-rule:evenodd;fill:#AB1D21;}
	.st1{fill:#AB1D21;}
	.st2{fill-rule:evenodd;clip-rule:evenodd;}
	.st3{fill-rule:evenodd;clip-rule:evenodd;fill:#FFFFFF;}
</style>
<g>
	<path class="st0" d="M30.2,180.3c0.8,0.9-0.4,1.2-1.5,1.8c-0.8,0.4-0.8,1.9-2.5,0.9C23.9,180.3,28.5,177.4,30.2,180.3 M71.3,168
		c1-1.3,1.8,1.1,3.5,1.5c1.7,0.4,4.2-1.1,4.6,0.5C77.1,190.1,63,186.5,71.3,168z M77.4,159.9c1.3,0,2.3,1,2.3,2.2
		c0,1.2-1,2.2-2.3,2.2c-1.3,0-2.3-1-2.3-2.2C75.2,160.9,76.2,159.9,77.4,159.9z M75.7,186.7c-7.6,5.3-17.5,0.8-8.3-20.2
		c2-4.5,4.8-11,9.9-12.4c3.4-1,6.2,1.1,7.8,3.8c0.4,0.6,1.3-0.3,1.6-0.6c3.9-4.3,7.4-4.6,9.4-0.8c1.5,2.9,0.9,2.1,4.1,1.4
		c2.7-0.6,3.7,0.1,5,2.6c1.2,2.4,1.3,5,1.4,7.6l0.2,8.6c0,2.1-0.4,2.5,2,2.5c3,0,3.5-2.1,3.9-5.1c0.8-5.5,2.6-11.5,6.2-15.8
		c1.1-1.2,2.3-2.3,3.9-3.3c2.3-1.4,5.3-2.4,6.6-0.5c1.7,2.6,1.7,7.7-4.3,8.2c4.5-2.6,1.4-5.2-0.7-3c-4.5,4.3-6.4,9.3-6.7,14.7
		c-0.2,2.9-0.6,7.4,3.8,6.9c3.5-0.5,5.5-7.1,6.7-18.1c0.1-0.5,0-0.9,0.4-1c4.3-1.5,5.3-0.9,4.8,0.1c-0.3,0.6-1.2,1-1.9,2.1
		c-1,1.6-1.3,6.2-1.5,8.1c-0.9,9.1,0.9,10.6,5.4,4.6c0.8-1,1.7-0.1,1.1,1c-1.9,2.9-3.1,4.3-4.3,5.8c-5.4,6.9-3.7-4.1-9.4,1.3
		c-4,3.3-7.4,1.7-9.1-2.7c-0.5-1.2-1.4-1.5-1.9-0.2c-2.9,6.6-9.4,5.6-9.7-2L101,168c-0.1-4.2-3.8-2.4-5,1.6
		c-1.1,3.7,1.2,5.9,1.1,14.7c0,1.4-1.1,2.9-2.2,3.7c-2,1.4-2.4-1.5-2.9-2.9c-2.2-7.1-0.4-14.6-0.9-21.8c0.2-3.2-3.6-2.5-5.6,1.1
		c-1,1.7-1.6,3.5-2.2,6C81.8,176.7,81.7,182.5,75.7,186.7z M161.8,135c-2.1,0.2-2.9-0.2-3.3-1.1c-0.7-1.6,0.5-1.1,1.6-1.4
		c2-0.5,4.6-1.5,3.7,1.1C163.4,134.9,163.1,134.9,161.8,135z M166.4,136.6c-1.8,3-6.7,4.1-10.4,0.7c-5.4,7-7.8,14.5-7.3,22.4
		c0.5,8.1,4.2,21.2,13.6,22.9c5.5,1,11.9-1.9,14.5-14.1c2-10.5,0.3-18.2-4.6-22c-2.4-1.8-5.5-2.7-8.3-1.3c-5.9,2.9-6.7,12-6,17
		c0.8,6.5,4.4,11.9,8.2,10.4c5.3-2,5.8-10.8,4.5-14.9c-2.3-6.8-9.5-1.6-7.2,4c0.9,2.1,3.7,3.1,3-2.6c3.1,1.8,2.3,6.2,0.2,7.6
		c-1.7,1.2-4.5,0-5.8-2.6c-2-4-0.3-13.6,6.3-14c2.8-0.2,5.4,1.3,6.7,5c1.2,3.3,1.9,9.1,0,14.6c-1.2,3.5-3.8,7.4-7.4,8.2
		c-8.4,1.8-11.9-8.1-12.8-13.5c-0.9-5.6-0.2-11.3,2.1-16c5.4-11,17-10.2,23.2-1.5c3.3,4.8,3.7,10.5,3.4,15.9
		c-0.4,7.9-3.6,22.8-13.8,25.4c-7.2,2.8-13.6,0.6-18.2-4.4c-4.5-4.9-6.1-12.4-6.4-20.8c-0.2-6.1-0.3-12.7,2.5-18.9
		c1.8-4.1,4.4-8.1,7.8-11.8c-1.5-4.4-3.2-10.5,3.8-13.8c7.7-3.6,13.8,2.6,5.8,7.7c1.7-5.3-6.8-3.4-5.6,0.9c0.3,2.9,2.5,1.5,4.8,1.4
		C166.6,128.6,168.1,133.8,166.4,136.6z M196.3,136c-0.6,5.9,2.4,14.3-5.8,21.2C192.1,145.3,189.6,138,196.3,136z M223.9,159.4
		c2-2.2,2.4-4.2,1.7-6.1c-0.8-2.2-2.4-4.1-4.3-3.8c-1.6,0.2-2.6,1.3-3.2,2.5c-1.1,2.1-1.4,4.6-0.3,6.9c1.8,4.8-2.2,12.5-9.5,22.3
		c-2.4,3.3-5.1,0.8-4.2-3l3.4-18.8c0.7-2.2-0.9-2-2.4-2.2c-1.5-0.2-2.3-0.2-3.3,1.3c-2.3,5-3.1,10.7-3.9,16.4
		c-2.1,11.3-7.2,8.3-7.7-5.2c-0.2-4.8,2.7-6.7,4.9-10.5c10.4-18.3,4.9-35.9-4-27c-4.6,4.3-5.9,15.8-6,27.2
		c-0.2,17.1,3.7,34.1,11.7,27.5c1.9-1.8,3.4-1.5,4.7,0.3c1.9,1.8,5.2,2,7.7-0.4c5.2-4.7,7.3-11.3,10.9-17c1.3-2.7,2.6-1.9,3.8-0.3
		c4.3,5.2,3.6,10.7,1.3,13c-1.9,1.9-5,1.2-6.4-1.3c-1-1.8-2.3-1.1-2.3,1.2c0.2,6.3,4.6,10.4,10,6.6c1.2-1.1,2.4-1.1,3.4,0
		c3.2,3.4,5.5,2.7,8.3,0.1c2.4-2.2,1.6-1.2,4.4,0.5c2.8,1.7,5.1,0.6,7.7-1.8c2.1-2.4,3.2-0.4,4.7,1c3,2.7,5.9,0.1,7.2-2.9
		c0.7-1.7,1.3-3.9,1.7-6.7c0.6-1.3-0.6-2.7-1.2-1.1c-2.1,6.1-4.9,7.7-5.4,5.1c-0.2-1.2-0.2-3.4,0.1-6.5c0.6-6.3,0-3.7,3.7-10.8
		c0.6-1.1-1.8-1.9-6.5-0.4c-0.4,0.1-0.3,0.5-0.4,1.1c-0.5,5.1-0.2,8.9-0.7,11.3c-0.6,3.3-2,4.4-4.2,4.7c-4.7,0.6-4.7-3.1-4.5-6.2
		c0.3-5.9,1.2-10.8,6.1-15.5c2.2-2.4,4.7,0.5,1.6,3c6.5-0.5,6.9-5.7,5-8.5c-1.4-2.1-5.8-1.2-8.3,0.3c-6.7,4-9.4,13.1-10.4,20.3
		c-0.4,3.2-1.8,8.5-5.1,8.5c-9.7,0.7,5.6-4.2-9.5-23C223.9,161,223.6,160.6,223.9,159.4z M208.8,142.1c2.2,0.5,3.4,3.2,2.7,6.2
		c-0.6,2.9-2.9,4.9-5.1,4.5c-2.2-0.5-3.4-3.2-2.7-6.2C204.4,143.7,206.7,141.7,208.8,142.1z M52.8,146.6c-2.3-8.1-9.9-2.2-7.1,4.5
		c1,2.4,3.6,3.2,3-1.9c5.2,5.8-2.8,10.4-5.4,4.1c-2-4.8-0.8-16.1,5.9-16.6c2.8-0.2,5.6,2.2,6.9,6.6c1.2,3.9,2,11,0.1,17.4
		c-1.2,4.1-3.7,7.9-7.3,8.8c-8.4,2.1-12.3-8.4-13.2-14.7c-0.9-6.6-0.3-14.3,1.8-20.1c4.8-13.5,18-11.9,24.2-1.4
		c3.3,5.7,4,13.2,3.8,19.7c-0.4,9.4-4.2,32.4-14.4,35.6c-4.3,1.3-9.7-0.2-16.3-4.6c-10,12-20.5-5.2-5.6-9.4c1.1-10-1.4-20.8-2-31.1
		c-0.2-4.1,3.3-5,4.6-1.4c2.1,9.9,2.5,22.2,2.7,34.5c11.9,10.5,20.9,9.4,25.2-15.5c2-12.5-0.5-23.1-5.4-27.7
		c-2.4-2.2-5.5-3.2-8.3-1.5c-5.9,3.4-6.5,14.3-5.8,20.3c0.8,7.8,4.7,14.3,8.5,12.6C53.9,162.3,54.2,151.5,52.8,146.6z"/>
	<path class="st1" d="M88.9,217.2c0.2,0,0.4,0,0.5,0c0.1,0,0.3,0,0.3,0c1.9,0,3.4-0.4,4.3-1.2c1-0.8,1.5-1.9,1.5-3.2
		c0-1.3-0.4-2.3-1.2-3.1c-0.8-0.8-1.8-1.2-3.1-1.2c-0.6,0-1.3,0.1-2.3,0.3V217.2z M104.5,230l-3.2,0l-9.1-11.8c-0.5,0-2,0-2.4,0
		c-0.1,0-0.3,0-0.4,0c-0.1,0-0.3,0-0.5,0v5.8c0,1.3,0.1,2,0.4,2.4c0.4,0.4,0.9,0.7,1.7,0.7h0.8v0.5h-8.6V227h0.8
		c0.9,0,1.5-0.3,1.8-0.8c0.2-0.3,0.3-1,0.3-2.2v-13c0-1.3-0.1-2-0.4-2.4c-0.4-0.4-1-0.7-1.7-0.7h-0.8v-0.6h7.3
		c2.1,0,3.7,0.2,4.7,0.5c5.2,1.6,3.7,8.7-0.7,9.7L104.5,230z"/>
	<path id="XMLID_27_" class="st1" d="M118.9,208.9l2.5-0.8v3.8h4.5v1.6h-4.5v10.2c0,0.9,0.2,1.6,0.6,2c0.4,0.5,0.8,0.7,1.4,0.7
		c0.7,0,1.2-0.4,1.7-1.1c0.5-0.7,0.8-1.9,0.8-3.5h1c-0.1,2.1-0.5,3.7-1.3,4.7c-0.8,1-1.8,1.5-3,1.5c-1.2,0-2-0.4-2.7-1.1
		c-0.6-0.7-1-1.7-1-2.8v-10.7h-2.4v-1.6l2.4,0V208.9z"/>
	<path id="XMLID_26_" class="st1" d="M132.8,211.2v16.9h-2.5v-10c0-1.8,0-2.9-0.1-3.4c-0.1-0.4-0.2-0.6-0.3-0.8
		c-0.2-0.2-0.4-0.2-0.6-0.2c-0.3,0-0.6,0.1-1,0.3l-0.2-0.6l4.2-2H132.8z"/>
	<path id="XMLID_25_" class="st1" d="M132.1,202.8c0.6,0,1.1,0.2,1.6,0.6c0.4,0.4,0.6,1,0.6,1.6c0,0.6-0.2,1.1-0.6,1.6
		c-0.4,0.4-1,0.7-1.6,0.7c-0.6,0-1.1-0.2-1.6-0.7c-0.4-0.4-0.7-1-0.7-1.6c0-0.6,0.2-1.1,0.6-1.6C131,203,131.5,202.8,132.1,202.8"/>
	<path id="XMLID_24_" class="st1" d="M143.6,211.6c0.3,0.1,0.5,0.3,0.5,0.5v0.3c0,0.2,0,0.3,0,0.5l0.1,0.7c0,0.2,0.1,0.5,0.1,0.7
		c0,0.4-0.1,0.7-0.4,0.7c-0.1,0-0.3-0.1-0.4-0.4c-0.6-1.8-0.4-2.5-2.2-2.5c-1.2,0-2,1-2,2.3c0,2.7,5.3,4.7,6,8
		c0.3,1.3,0.3,2.8-0.9,4.3c-1.4,1.8-5.1,1.7-7,0.6c-0.3-0.1-0.4-0.2-0.5-0.2l-0.4-0.1c-0.3,0-0.4-0.2-0.4-0.4l0-0.7l0-2.5l0-0.5
		c0-0.3,0.2-0.5,0.4-0.5c0.2,0,0.3,0.2,0.4,0.5c0.2,1.3,0.7,2.3,1.4,3c1.2,1.2,2.8,1.5,4.1,0.3c2.3-2.1-1.2-5-2.6-6.2
		c-1.7-1.4-2.6-2.8-2.6-4.9c0-1.1,0.4-2,1.3-2.8C140.2,210.9,141.8,211,143.6,211.6"/>
	<path class="st1" d="M167.2,217.1c0-1.7-0.1-2.8-0.2-3.4c-0.4-1.4-3.1-1.4-4,0.4c-0.8,1.5-1.1,2.7-1.1,4.3L167.2,217.1z
		 M169.5,218.4l-7.8,1.8c-0.3,2,0.2,3.9,1.3,4.9c2.4,2.2,5.7,0.2,6.5-3.1l1.1,0.6c-1.3,3.9-3.2,5.7-6.6,5.4c-1.8-0.1-3-0.9-3.9-2.1
		c-1.9-2.3-2-8.1,0.1-11.4c1.2-1.8,2.3-2.7,3.9-3.2c1.3-0.4,3.1-0.2,4,0.8C169.1,213.1,169.4,216,169.5,218.4z"/>
	<path class="st0" d="M110.6,211.2c3.3,0,5.6,3.7,5.2,8.4c-0.4,4.6-3,8.5-7.1,8.5c-4.1,0-5.3-3.9-4.8-8.5
		C104.2,214.9,107.3,211.2,110.6,211.2 M109.7,212.5c1.7,0,2.9,3.2,2.7,7.2c-0.2,4-1.8,7.2-3.5,7.2c-1.7,0-2.9-3.2-2.7-7.2
		C106.4,215.7,108,212.5,109.7,212.5z"/>
	<path id="XMLID_19_" class="st1" d="M154.9,211.6c0.3,0.1,0.5,0.3,0.5,0.5v0.3c0,0.2,0,0.3,0,0.5l0.1,0.7c0,0.2,0.1,0.5,0.1,0.7
		c0,0.4-0.1,0.7-0.4,0.7c-0.1,0-0.3-0.1-0.4-0.4c-0.6-1.8-0.4-2.5-2.2-2.5c-1.2,0-2,1-2,2.3c0,2.7,5.3,4.7,6,8
		c0.3,1.3,0.3,2.8-0.9,4.3c-1.4,1.8-5.1,1.7-7,0.6c-0.3-0.1-0.4-0.2-0.5-0.2l-0.4-0.1c-0.3,0-0.4-0.2-0.4-0.4l0-0.7l0-2.5l0-0.5
		c0-0.3,0.2-0.5,0.4-0.5c0.2,0,0.3,0.2,0.4,0.5c0.2,1.3,0.7,2.3,1.4,3c1.2,1.2,2.8,1.5,4.1,0.3c2.3-2.1-1.2-5-2.6-6.2
		c-1.7-1.4-2.6-2.8-2.6-4.9c0-1.1,0.4-2,1.3-2.8C151.5,210.9,153.1,211,154.9,211.6"/>
	<path class="st1" d="M199.7,217.1c0-1.7-0.1-2.8-0.2-3.4c-0.4-1.4-3.1-1.4-4,0.4c-0.8,1.5-1.1,2.7-1.1,4.3L199.7,217.1z
		 M202.1,218.4l-7.8,1.8c-0.3,2,0.2,3.9,1.3,4.9c2.4,2.2,5.7,0.2,6.5-3.1l1.1,0.6c-1.3,3.9-3.2,5.7-6.6,5.4c-1.8-0.1-3-0.9-3.9-2.1
		c-1.9-2.3-2-8.1,0.1-11.4c1.2-1.8,2.3-2.7,3.9-3.2c1.3-0.4,3.1-0.2,4,0.8C201.7,213.1,202,216,202.1,218.4z"/>
	<path id="XMLID_16_" class="st1" d="M177.3,211.2l-0.5,6.4c1.5-4,2.8-5.8,5.9-6l-0.2,2.1c-4.3,0.4-5.7,6.7-6.2,11.4l-0.2,3h-2.5
		l0.4-10c0.1-1.8,0.1-2.9,0-3.4c-0.1-0.4-0.2-0.6-0.3-0.8c-0.1-0.2-0.3-0.2-0.6-0.2c-0.3,0-0.6,0.1-1,0.3l-0.2-0.6l4.3-2H177.3z"/>
	<path id="XMLID_15_" class="st1" d="M188.3,202.8c0.6,0,1.1,0.2,1.6,0.6c0.4,0.4,0.6,1,0.6,1.6c0,0.6-0.2,1.1-0.6,1.6
		c-0.4,0.4-1,0.7-1.6,0.7s-1.1-0.2-1.6-0.7c-0.4-0.4-0.7-1-0.7-1.6c0-0.6,0.2-1.1,0.6-1.6C187.1,203,187.6,202.8,188.3,202.8"/>
	<path id="XMLID_14_" class="st1" d="M189.2,211.2v16.9h-2.5v-10c0-1.8,0-2.9-0.1-3.4c-0.1-0.4-0.2-0.6-0.3-0.8
		c-0.2-0.2-0.4-0.2-0.6-0.2c-0.3,0-0.6,0.1-1,0.3l-0.2-0.6l4.2-2H189.2z"/>
	<path class="st2" d="M228.5,217.5c-54.3-32.5-114.5-34.4-171.8,0C114.1,250,172.6,248.6,228.5,217.5 M253.8,211.8l5.2,5.8l-5.2,5.8
		l-5.2-5.8L253.8,211.8z M266.8,213.2l3.9,4.4l-3.9,4.4l-3.9-4.4L266.8,213.2z M31.2,211.8l-5.2,5.8l5.2,5.8l5.2-5.8L31.2,211.8z
		 M18.2,213.2l-3.9,4.4l3.9,4.4l3.9-4.4L18.2,213.2z M238.4,210.2l6.3,7l-6.3,7l-5.2-5.8l-3.2,1.8c-57.6,32-117.2,32.5-174.8,0
		l-3.3-1.9l-5.3,5.9l-6.3-7l6.3-7l5.7,6.3l2.8-1.7c6.8-4.1,13.7-7.7,20.7-10.8H19.6c-7.9,0-14.3-6.4-14.3-14.3v-62
		c0-7.9,6.4-14.3,14.3-14.3h45.2v-9.5c0-42.6,34.9-77.5,77.5-77.5s77.5,34.9,77.5,77.5v9.5h44.3c7.9,0,14.3,6.4,14.3,14.3v62
		c0,7.9-6.4,14.3-14.3,14.3h-54.8c7,3.1,13.9,6.7,20.8,10.8l2.7,1.6L238.4,210.2z M16.2,196.1h56v1.9h-56V196.1z M71.2,118.1
		c-1-23.6,1.1-44.4,17.6-62.1c13.1-14.1,33.1-24.5,52.3-24.4c19.6,0.1,39.4,8.2,52.6,22.6c18.6,20.2,20.3,37.8,19.7,64h53.3v1.9
		h-55.2c0.8-26.3-0.3-44.2-19.1-64.6c-12.9-14-32.2-21.9-51.3-22c-18.7-0.1-38.2,10.1-51,23.9C73.8,74.8,71.9,95.6,73.1,119l0.1,1
		H16.2v-1.9H71.2z M210.7,196.1h56v1.9h-56V196.1z M19.6,116.5h48.3v-12.6c0-40.9,33.5-74.4,74.4-74.4c40.9,0,74.4,33.5,74.4,74.4
		v12.6h47.4c6.2,0,11.2,5.1,11.2,11.2v62c0,6.2-5.1,11.2-11.2,11.2H202c-39.1-15.4-79.7-15.5-118.8,0H19.6
		c-6.2,0-11.2-5.1-11.2-11.2v-62C8.4,121.5,13.5,116.5,19.6,116.5z"/>
	<path class="st0" d="M151.2,77c0-1.1,0.3-2.2,1.1-2.9c1.5-1.3,2.3-0.1,1.8,1.3C153.7,76.4,152.2,76.7,151.2,77 M151.3,83.5
		c4.2,9.8,3.1,19.6,4.6,29.3c-5.4,0-5.4,0.9-8,1.1c-3.1,0.3-6,0.3-6.4,2.8c0.1,1.6-0.4,3.8,0,5.8c0.3,1.5,0.9,2.9,1.1,4
		c0.4,2-0.4,2-2,2h-9.5c-1.5,0-3.4,0.2-1.8-1.9c1.7-2.3,8.3-2.7,5.5-7.3c-0.7-1.1,0.2-3-3.2-4.8c-2.2-1.1-6.8-0.8-10.8-1.5
		c0.6-1.6,0.2-3.6,0.6-5.4c0.4-1.8,1-3.7,1.2-5.6c0.4-4.9,1.8-6.3,1.3-7.7c-0.2-0.7-2-0.4-2.5-2.1c-0.6-2,0.1-5.5,3.5-12.9
		c1.6-3.4,2.3-3.1-0.1-5.8c-1.2-1.3-2.6-2-3.3-2.9c-2.1-2.7-2-3.7-5.6-4.2c-3.7-0.5-6.8-1.3-2-1.7c-4.8-6.4,0.9-11.2,5.2-10.8
		c5.7,0.6,7.8,5.8,5.8,10c3.5,0.6,1.1,1.9-1.7,1.9c6.7,7.9,10.2-5.4,15.2-8.3c0-0.8,0-1.6,0-2.4c-2.3,0.2-3.4-1.5-3.1-5.1
		c-1.5-0.6-1.5-1.6-0.2-2.5c-0.5-10,7.8-11.9,12.7-6.4c3-3.8,5.7-0.3,6.1,3.5c0.3,3.4-1.3,6.7-4.3,5.7c-1,1.9-2,3.4-3.9,3.9
		c5.1,3.9,7,9.7,5,18.6c4.6-6,10.3,0.4,1.5,6c6.5,1.6,5.8,4.7,1.1,3.4C154,84.5,154,85.8,151.3,83.5z"/>
	<path id="XMLID_1_" class="st3" d="M118.5,61.5c-0.7-0.1-1.3-0.7-1.4-1.4c-0.1-2.2,2.8-1.6,3.6-0.4c0.5,0.8,0.6,1.8,0.3,2.7
		c-0.5,1.1-1.6,1.7-2.8,2c-3,0.3-4.5-2.9-3.7-5.5c1.2-4.2,6-4,8.3-0.9c1.3,1.7,0.6,4,0.1,5.9l-0.1,0.3l-0.5-0.1l0.1-0.3
		c0.4-1.7,1.1-3.9,0-5.5c-2-2.8-6.2-3.1-7.3,0.7c-0.6,2.2,0.5,5,3.1,4.7c1-0.2,1.9-0.7,2.3-1.7c0.3-0.7,0.2-1.5-0.2-2.1
		c-0.5-0.7-2.7-1.5-2.6,0c0,0.5,0.5,0.8,0.9,0.9l0.3,0.1l-0.1,0.5L118.5,61.5z"/>
</g>
</svg>
