<!-- Generator: Adobe Illustrator 19.0.0, SVG Export Plug-In  -->
<svg version="1.1"
	 xmlns="http://www.w3.org/2000/svg" xmlns:xlink="http://www.w3.org/1999/xlink" xmlns:a="http://ns.adobe.com/AdobeSVGViewerExtensions/3.0/"
	 x="0px" y="0px" width="462.799px" height="369.465px" viewBox="0 0 462.799 369.465"
	 style="enable-background:new 0 0 462.799 369.465;" xml:space="preserve">
<style type="text/css">
	.st0{fill-rule:evenodd;clip-rule:evenodd;fill:#FFFFFF;}
	.st1{fill:#FFFFFF;}
	.st2{fill-rule:evenodd;clip-rule:evenodd;fill:#FFFFFF}
	.st3{fill-rule:evenodd;clip-rule:evenodd;fill:#FFFFFF;}
</style>
<defs>
</defs>
<g>
	<path class="st0" d="M42.07,260.836c1.289,1.545-0.669,2.039-2.519,2.99c-1.408,0.724-1.276,3.217-4.251,1.524
		C31.441,260.855,39.331,255.955,42.07,260.836 M111.822,240.021c1.675-2.228,3.125,1.812,5.905,2.508
		c2.888,0.723,7.091-1.804,7.724,0.791C121.58,277.32,97.663,271.251,111.822,240.021z M122.196,226.218
		c2.133,0,3.863,1.651,3.863,3.689s-1.729,3.69-3.863,3.69c-2.133,0-3.863-1.652-3.863-3.69S120.063,226.218,122.196,226.218z
		 M119.185,271.683c-12.795,9.014-29.611,1.293-14.139-34.171c3.329-7.63,8.08-18.645,16.788-21.087
		c5.744-1.611,10.55,1.903,13.155,6.443c0.607,1.057,2.174-0.493,2.657-1.011c6.563-7.233,12.603-7.724,15.914-1.425
		c2.543,4.838,1.598,3.566,6.928,2.305c4.586-1.086,6.287,0.152,8.466,4.45c2.084,4.111,2.277,8.443,2.381,12.918l0.338,14.588
		c0.084,3.616-0.72,4.196,3.388,4.258c5.139,0.08,5.93-3.608,6.623-8.621c1.284-9.294,4.339-19.539,10.565-26.716
		c1.807-2.083,3.952-3.953,6.559-5.533c3.841-2.327,8.96-4.046,11.119-0.765c2.951,4.486,2.81,13.046-7.327,13.828
		c7.636-4.462,2.306-8.806-1.17-5.078c-7.699,7.29-10.82,15.762-11.339,24.914c-0.277,4.884-0.936,12.587,6.412,11.609
		c5.882-0.783,9.391-12.042,11.395-30.666c0.157-0.918,0.07-1.54,0.65-1.734c7.348-2.465,9.024-1.529,8.099,0.238
		c-0.527,1.006-2.051,1.706-3.202,3.591c-1.618,2.648-2.22,10.42-2.54,13.718c-1.508,15.496,1.585,17.958,9.125,7.822
		c1.393-1.665,2.91-0.206,1.91,1.737c-3.135,4.919-5.291,7.207-7.319,9.82c-9.141,11.771-6.317-6.929-15.945,2.159
		c-6.712,5.61-12.608,2.917-15.432-4.522c-0.783-2.067-2.314-2.499-3.288-0.319c-4.981,11.163-15.856,9.475-16.505-3.34
		l-1.28-21.073c-0.245-7.192-6.442-4.045-8.447,2.658c-1.892,6.326,2.072,9.931,1.936,24.861c-0.068,2.333-1.888,4.975-3.686,6.232
		c-3.403,2.381-4.094-2.542-4.835-4.986c-3.65-12.044-0.621-24.707-1.463-37.011c0.292-5.348-6.063-4.275-9.488,1.857
		c-1.644,2.943-2.71,5.988-3.785,10.103C129.548,254.678,129.413,264.476,119.185,271.683z M265.162,184.119
		c-3.522,0.322-4.934-0.382-5.523-1.855c-1.105-2.766,0.845-1.908,2.728-2.335c3.367-0.764,7.798-2.576,6.219,1.798
		C267.793,183.922,267.363,183.918,265.162,184.119z M272.928,186.721c-3.09,5.137-11.358,6.964-17.613,1.257
		c-9.157,11.856-13.289,24.523-12.379,38.002c0.926,13.725,7.182,35.941,22.997,38.752c9.245,1.644,20.232-3.205,24.494-23.968
		c3.375-17.762,0.481-30.752-7.776-37.208c-4.005-3.132-9.257-4.553-14.071-2.189c-9.953,4.887-11.338,20.328-10.242,28.802
		c1.427,11.031,7.462,20.159,13.91,17.695c8.978-3.43,9.849-18.305,7.551-25.213c-3.815-11.467-16.089-2.651-12.173,6.783
		c1.472,3.546,6.199,5.272,5.092-4.433c5.172,3.119,3.891,10.462,0.399,12.897c-2.928,2.041-7.569-0.038-9.764-4.442
		c-3.384-6.788-0.593-23.114,10.671-23.733c4.792-0.264,9.083,2.215,11.331,8.528c1.966,5.525,3.238,15.5,0.023,24.655
		c-2.056,5.858-6.403,12.619-12.573,13.938c-14.169,3.03-20.132-13.783-21.636-22.847c-1.568-9.448-0.407-19.074,3.582-27.148
		c9.192-18.6,28.833-17.325,39.276-2.459c5.668,8.069,6.229,17.726,5.788,26.988c-0.636,13.34-6.147,38.577-23.409,43.052
		c-12.155,4.727-23.003,1.1-30.859-7.417c-7.596-8.235-10.313-21.045-10.793-35.295c-0.348-10.338-0.507-21.436,4.271-32.096
		c3.117-6.956,7.453-13.728,13.164-19.98c-2.534-7.463-5.454-17.806,6.509-23.384c13.117-6.116,23.413,4.379,9.811,12.967
		c2.87-8.995-11.478-5.805-9.505,1.519c0.499,4.908,4.3,2.469,8.072,2.446C273.307,173.155,275.752,182.027,272.928,186.721z
		 M323.468,185.687c-1.041,10.07,3.994,24.306-9.896,35.939C316.511,201.576,312.135,189.181,323.468,185.687z M370.237,225.448
		c3.387-3.744,4.062-7.178,2.904-10.263c-1.389-3.7-4.055-6.88-7.356-6.39c-2.716,0.403-4.394,2.237-5.503,4.259
		c-1.918,3.498-2.409,7.823-0.57,11.721c3.104,8.198-3.741,21.23-16.146,37.762c-4.132,5.606-8.628,1.323-7.031-5.035l5.816-31.859
		c1.165-3.776-1.473-3.405-4.081-3.802c-2.462-0.375-3.919-0.275-5.641,2.153c-3.948,8.529-5.251,18.129-6.641,27.823
		c-3.577,19.162-12.255,13.984-13.021-8.855c-0.349-8.186,4.553-11.379,8.249-17.862c17.681-31.021,8.273-60.786-6.773-45.768
		c-7.782,7.268-9.949,26.709-10.174,46.009c-0.339,28.954,6.334,57.814,19.897,46.527c3.155-3.035,5.757-2.461,7.986,0.521
		c3.153,3.085,8.825,3.368,13.108-0.608c8.768-8.045,12.327-19.214,18.49-28.821c2.17-4.596,4.341-3.257,6.511-0.434
		c7.367,8.86,6.048,18.187,2.194,21.987c-3.257,3.213-8.402,2.034-10.884-2.141c-1.66-3.082-3.909-1.794-3.949,2.04
		c0.404,10.661,7.756,17.581,16.928,11.198c2.079-1.788,4.025-1.871,5.816,0.044c5.432,5.76,9.326,4.538,14.095,0.12
		c4.043-3.743,2.794-1.988,7.532,0.786c4.785,2.803,8.662,0.937,13.123-3.006c3.573-4.089,5.431-0.616,7.94,1.635
		c5.142,4.612,10.054,0.243,12.236-4.835c1.219-2.835,2.155-6.629,2.86-11.43c1.091-2.119-1.04-4.622-2.083-1.894
		c-3.614,10.344-8.259,13.037-9.118,8.614c-0.382-1.965-0.255-5.738,0.25-10.939c1.037-10.678-0.054-6.338,6.221-18.319
		c1.009-1.926-3.076-3.295-11.092-0.607c-0.632,0.212-0.538,0.891-0.709,1.892c-0.93,8.645-0.405,15.036-1.136,19.191
		c-0.986,5.61-3.443,7.435-7.128,7.925c-8.016,1.067-7.906-5.254-7.604-10.581c0.565-9.984,1.976-18.272,10.374-26.224
		c3.792-4.066,7.956,0.932,2.664,5.105c11.059-0.853,11.646-9.584,8.427-14.478c-2.353-3.577-9.85-2.049-14.039,0.488
		c-11.286,6.836-15.883,22.211-17.553,34.312c-0.754,5.467-3.008,14.439-8.614,14.352c-16.382,1.258,9.572-7.192-16.065-38.951
		C370.309,228.023,369.726,227.48,370.237,225.448z M344.782,196.16c3.645,0.797,5.719,5.469,4.633,10.433
		c-1.086,4.963-4.922,8.342-8.567,7.545c-3.645-0.797-5.719-5.469-4.633-10.433C337.302,198.742,341.137,195.363,344.782,196.16z
		 M80.489,203.702c-3.817-13.674-16.699-3.784-12,7.569c1.7,4.108,6.026,5.457,5.005-3.215c8.814,9.838-4.722,17.665-9.105,6.976
		c-3.331-8.128-1.288-27.351,9.977-28.091c4.794-0.315,9.43,3.676,11.678,11.204c1.967,6.589,3.412,18.582,0.197,29.5
		c-2.058,6.985-6.229,13.388-12.399,14.963c-14.17,3.612-20.825-14.156-22.33-24.964c-1.568-11.265-0.425-24.227,3.061-34.128
		c8.063-22.904,30.481-20.142,40.925-2.414c5.67,9.621,6.837,22.324,6.396,33.368c-0.637,15.907-7.188,54.949-24.451,60.285
		c-7.261,2.245-16.37-0.293-27.56-7.842c-16.973,20.317-34.679-8.742-9.463-15.886c1.794-17.015-2.401-35.157-3.385-52.693
		c-0.407-6.979,5.617-8.416,7.813-2.431c3.618,16.744,4.165,37.556,4.514,58.508c20.105,17.79,35.458,15.909,42.711-26.216
		c3.375-21.177-0.822-39.149-9.079-46.848c-4.005-3.734-9.257-5.428-14.071-2.61c-9.952,5.827-10.991,24.236-9.895,34.341
		c1.428,13.152,7.895,24.244,14.344,21.305C82.35,230.293,82.788,211.94,80.489,203.702z"/>
	<path class="st1" d="M141.577,323.363c0.326,0,0.6,0,0.831,0.008c0.232,0.008,0.429,0.017,0.574,0.017
		c3.249,0,5.7-0.703,7.346-2.109c1.654-1.406,2.477-3.197,2.477-5.374c0-2.126-0.669-3.857-1.997-5.185
		c-1.329-1.329-3.094-1.997-5.288-1.997c-0.969,0-2.28,0.163-3.943,0.48V323.363z M168.043,345.074l-5.496,0.023l-15.5-20.03
		c-0.849,0.026-3.446-0.076-3.986-0.076c-0.214,0-0.446,0-0.703-0.008c-0.248-0.009-0.505-0.017-0.78-0.035v9.892
		c0,2.142,0.24,3.471,0.703,3.994c0.643,0.737,1.594,1.106,2.863,1.106h1.337v0.926h-14.588v-0.926h1.277
		c1.44,0,2.468-0.471,3.085-1.406c0.351-0.523,0.532-1.757,0.532-3.694v-22.003c0-2.143-0.24-3.471-0.703-3.985
		c-0.651-0.738-1.629-1.106-2.914-1.106h-1.277v-0.934h12.402c3.617,0,6.283,0.266,7.997,0.797c8.738,2.665,6.272,14.739-1.228,16.4
		L168.043,345.074z"/>
	<path class="st1" d="M192.438,309.3l4.202-1.433v6.482h7.631v2.642h-7.631v17.294c0,1.493,0.309,2.642,0.936,3.437
		c0.619,0.796,1.409,1.198,2.364,1.198c1.143,0,2.113-0.609,2.921-1.817c0.808-1.208,1.272-3.202,1.41-5.981h1.684
		c-0.104,3.585-0.817,6.246-2.14,7.984c-1.323,1.739-3.042,2.603-5.156,2.603c-1.951,0-3.472-0.609-4.572-1.827
		c-1.099-1.218-1.65-2.818-1.65-4.792v-18.1h-4.107v-2.642l4.107-0.001V309.3z"/>
	<path class="st1" d="M215.953,313.153v28.557h-4.271v-16.961c0-3.008-0.071-4.953-0.228-5.84c-0.115-0.652-0.316-1.096-0.571-1.344
		c-0.255-0.258-0.607-0.382-1.055-0.382c-0.483,0-1.063,0.155-1.749,0.455l-0.36-1.096l7.101-3.39H215.953z"/>
	<path class="st1" d="M214.81,298.954c1.037,0,1.922,0.367,2.655,1.087c0.72,0.734,1.088,1.619,1.088,2.656
		c0,1.037-0.367,1.922-1.088,2.668c-0.733,0.734-1.618,1.113-2.655,1.113c-1.037,0-1.922-0.379-2.669-1.113
		c-0.733-0.746-1.113-1.631-1.113-2.668c0-1.037,0.367-1.922,1.1-2.656C212.849,299.32,213.747,298.954,214.81,298.954"/>
	<path class="st1" d="M234.306,313.861c0.537,0.183,0.791,0.502,0.791,0.911v0.471c0,0.269,0.034,0.551,0.06,0.822l0.11,1.142
		c0.04,0.412,0.09,0.791,0.09,1.122c0,0.761-0.221,1.147-0.651,1.172c-0.24,0.014-0.458-0.229-0.651-0.761
		c-1.078-2.973-0.712-4.23-3.668-4.23c-2.069,0-3.363,1.717-3.363,3.944c0,4.653,9.015,7.961,10.232,13.561
		c0.46,2.119,0.551,4.786-1.488,7.347c-2.448,3.076-8.626,2.813-11.853,1.041c-0.435-0.239-0.733-0.306-0.852-0.321l-0.762-0.09
		c-0.449-0.053-0.721-0.279-0.731-0.731l-0.03-1.262l-0.031-4.224l0.06-0.881c0.08-0.531,0.29-0.802,0.651-0.822
		c0.351-0.02,0.581,0.27,0.701,0.881c0.41,2.154,1.213,3.827,2.394,5.039c1.99,2.039,4.749,2.596,6.953,0.561
		c3.926-3.625-2.101-8.544-4.389-10.494c-2.827-2.41-4.326-4.764-4.326-8.319c0-1.883,0.755-3.464,2.264-4.758
		C228.478,312.7,231.239,312.815,234.306,313.861"/>
	<path class="st1" d="M274.176,323.102c0-2.882-0.141-4.809-0.415-5.808c-0.644-2.34-5.309-2.306-6.775,0.673
		c-1.288,2.618-1.8,4.617-1.8,7.251L274.176,323.102z M278.148,325.313l-13.138,3.121c-0.516,3.449,0.376,6.67,2.203,8.35
		c4.048,3.721,9.582,0.319,10.973-5.26l1.921,0.975c-2.146,6.649-5.346,9.58-11.098,9.175c-3.051-0.216-5.026-1.54-6.689-3.573
		c-3.246-3.969-3.371-13.757,0.179-19.229c1.971-3.039,3.877-4.659,6.532-5.423c2.215-0.637,5.213-0.27,6.844,1.346
		C277.505,316.41,278.028,321.258,278.148,325.313z"/>
	<path class="st0" d="M178.307,313.153c5.581,0,9.51,6.345,8.776,14.168c-0.735,7.824-5.028,14.389-12.032,14.389
		c-7.004,0-8.919-6.565-8.184-14.389C167.601,319.498,172.725,313.153,178.307,313.153 M176.837,315.366
		c2.912,0,4.963,5.427,4.579,12.121c-0.384,6.693-3.057,12.12-5.969,12.12c-2.912,0-4.964-5.427-4.58-12.12
		C171.252,320.794,173.925,315.366,176.837,315.366z"/>
	<path class="st1" d="M253.407,313.861c0.537,0.183,0.792,0.502,0.792,0.911v0.471c0,0.269,0.033,0.551,0.06,0.822l0.11,1.142
		c0.04,0.412,0.09,0.791,0.09,1.122c0,0.761-0.221,1.147-0.651,1.172c-0.24,0.014-0.458-0.229-0.651-0.761
		c-1.078-2.973-0.712-4.23-3.668-4.23c-2.069,0-3.363,1.717-3.363,3.944c0,4.653,9.015,7.961,10.232,13.561
		c0.46,2.119,0.551,4.786-1.488,7.347c-2.448,3.076-8.625,2.813-11.853,1.041c-0.435-0.239-0.733-0.306-0.852-0.321l-0.762-0.09
		c-0.449-0.053-0.721-0.279-0.731-0.731l-0.03-1.262l-0.031-4.224l0.06-0.881c0.08-0.531,0.29-0.802,0.651-0.822
		c0.351-0.02,0.581,0.27,0.701,0.881c0.41,2.154,1.213,3.827,2.395,5.039c1.99,2.039,4.749,2.596,6.953,0.561
		c3.927-3.625-2.101-8.544-4.389-10.494c-2.827-2.41-4.326-4.764-4.326-8.319c0-1.883,0.754-3.464,2.264-4.758
		C247.578,312.7,250.34,312.815,253.407,313.861"/>
	<path class="st1" d="M329.346,323.102c0-2.882-0.141-4.809-0.415-5.808c-0.644-2.34-5.309-2.306-6.775,0.673
		c-1.288,2.618-1.8,4.617-1.8,7.251L329.346,323.102z M333.318,325.313l-13.138,3.121c-0.516,3.449,0.376,6.67,2.203,8.35
		c4.048,3.721,9.582,0.319,10.974-5.26l1.92,0.975c-2.146,6.649-5.346,9.58-11.097,9.175c-3.051-0.216-5.026-1.54-6.689-3.573
		c-3.247-3.969-3.372-13.757,0.178-19.229c1.971-3.039,3.877-4.659,6.532-5.423c2.214-0.637,5.213-0.27,6.843,1.346
		C332.675,316.41,333.198,321.258,333.318,325.313z"/>
	<path class="st1" d="M291.375,313.153l-0.803,10.773c2.527-6.781,4.752-9.814,9.927-10.134l-0.356,3.572
		c-7.25,0.759-9.667,11.411-10.522,19.322l-0.375,5.024h-4.271l0.701-16.961c0.124-3.008,0.133-4.953,0.012-5.84
		c-0.088-0.652-0.271-1.096-0.515-1.344c-0.245-0.258-0.591-0.383-1.039-0.383c-0.483,0-1.069,0.155-1.767,0.455l-0.315-1.096
		l7.241-3.39H291.375z"/>
	<path class="st1" d="M309.931,298.954c1.037,0,1.922,0.367,2.655,1.087c0.721,0.734,1.088,1.619,1.088,2.656
		c0,1.037-0.367,1.922-1.088,2.668c-0.733,0.734-1.618,1.113-2.655,1.113s-1.922-0.379-2.669-1.113
		c-0.733-0.746-1.113-1.631-1.113-2.668c0-1.037,0.367-1.922,1.1-2.656C307.97,299.32,308.868,298.954,309.931,298.954"/>
	<path class="st1" d="M311.55,313.153v28.557h-4.271v-16.961c0-3.008-0.072-4.953-0.229-5.84c-0.115-0.652-0.316-1.096-0.571-1.344
		c-0.255-0.258-0.607-0.382-1.055-0.382c-0.483,0-1.063,0.155-1.749,0.455l-0.36-1.096l7.1-3.39H311.55z"/>
	<path class="st2" d="M378.123,323.905c-92.059-54.995-194.046-58.202-291.07,0C184.364,378.808,283.349,376.489,378.123,323.905
		 M420.985,314.105l8.8,9.8l-8.8,9.8l-8.8-9.8L420.985,314.105z M442.933,316.507l6.644,7.398l-6.644,7.398l-6.643-7.398
		L442.933,316.507z M43.773,314.105l-8.8,9.8l8.8,9.8l8.8-9.8L43.773,314.105z M21.825,316.507l-6.644,7.398l6.644,7.398
		l6.643-7.398L21.825,316.507z M394.884,311.539l10.678,11.89l-10.678,11.89l-8.817-9.819l-5.397,2.994
		c-97.648,54.178-198.539,55.081-296.196-0.018l-5.612-3.166l-8.988,10.009l-10.678-11.89l10.678-11.89l9.659,10.755l4.82-2.891
		c11.579-6.946,23.269-13.043,35.043-18.31H24.274C10.913,301.094,0,290.18,0,276.82V171.711c0-13.361,10.913-24.274,24.274-24.274
		h76.555v-16.153C100.828,59.068,159.896,0,232.113,0s131.285,59.068,131.285,131.285v16.153h75.128
		c13.36,0,24.274,10.913,24.274,24.274V276.82c0,13.361-10.913,24.274-24.274,24.274h-92.871
		c11.818,5.267,23.547,11.367,35.161,18.304l4.564,2.726L394.884,311.539z M18.418,287.611h94.946v3.149H18.418V287.611z
		 M111.559,155.393c-1.777-39.938,1.913-75.173,29.86-105.19c22.264-23.913,56.138-41.511,88.686-41.412
		c33.194,0.101,66.775,13.932,89.175,38.214c31.576,34.229,34.414,64.118,33.363,108.388h90.31v3.15h-93.555
		c1.422-44.545-0.575-74.865-32.433-109.402c-21.806-23.638-54.552-37.101-86.869-37.2c-31.67-0.097-64.706,17.138-86.372,40.408
		c-27.732,29.786-30.988,64.96-28.94,104.537l0.086,1.656H18.418v-3.15H111.559z M348.008,287.611h94.946v3.149h-94.946V287.611z
		 M24.274,152.687h81.804v-21.402c0-69.32,56.716-126.036,126.035-126.036c69.32,0,126.035,56.716,126.035,126.036v21.402h80.377
		c10.463,0,19.024,8.561,19.024,19.024V276.82c0,10.463-8.562,19.024-19.024,19.024H333.152
		c-66.252-26.122-134.942-26.236-201.294,0H24.274c-10.463,0-19.024-8.561-19.024-19.024V171.711
		C5.249,161.248,13.81,152.687,24.274,152.687z"/>
	<path class="st0" d="M247.06,85.725c0.027-1.808,0.522-3.738,1.868-4.902c2.492-2.153,3.906-0.123,3.018,2.285
		C251.3,84.864,248.858,85.349,247.06,85.725 M247.332,96.803c7.134,16.567,5.232,33.134,7.847,49.701
		c-9.151,0.036-9.091,1.445-13.471,1.889c-5.285,0.537-10.135,0.434-10.785,4.769c0.162,2.705-0.634,6.434,0.079,9.751
		c0.553,2.576,1.485,4.982,1.89,6.841c0.747,3.429-0.727,3.384-3.391,3.384h-16.017c-2.487,0-5.727,0.273-3.036-3.262
		c2.95-3.875,14.071-4.592,9.248-12.313c-1.181-1.891,0.299-5.075-5.484-8.119c-3.65-1.921-11.589-1.343-18.286-2.62
		c1.087-2.761,0.362-6.132,1.098-9.165c0.736-3.034,1.745-6.208,2.011-9.526c0.673-8.365,3.073-10.686,2.157-13.111
		c-0.416-1.101-3.308-0.721-4.214-3.585c-1.083-3.423,0.222-9.343,5.987-21.909c2.642-5.76,3.979-5.304-0.197-9.795
		c-2.071-2.229-4.418-3.423-5.563-4.846c-3.612-4.493-3.405-6.283-9.544-7.033c-6.328-0.773-11.546-2.285-3.348-2.917
		c-8.188-10.825,1.5-19.035,8.743-18.321c9.617,0.949,13.234,9.749,9.751,16.923c5.916,1.073,1.913,3.286-2.847,3.203
		c11.311,13.406,17.281-9.135,25.745-14.118c0-1.344,0-2.689,0-4.034c-3.955,0.277-5.695-2.61-5.22-8.661
		c-2.491-0.949-2.61-2.689-0.356-4.271c-0.812-16.876,13.188-20.178,21.592-10.796c5.052-6.476,9.695-0.55,10.312,5.998
		c0.545,5.776-2.277,11.354-7.347,9.662c-1.74,3.282-3.322,5.734-6.525,6.525c8.721,6.564,11.924,16.372,8.542,31.439
		c7.711-10.164,17.479,0.712,2.61,10.203c11.073,2.689,9.768,7.989,1.78,5.813C251.917,98.574,251.889,100.646,247.332,96.803z"/>
	<path class="st3" d="M191.798,59.495c-1.177-0.241-2.205-1.138-2.29-2.388c-0.251-3.693,4.724-2.72,6.171-0.609
		c0.903,1.317,1.091,3.019,0.473,4.495c-0.803,1.92-2.696,2.95-4.674,3.372c-5.074,0.512-7.579-4.904-6.297-9.246
		c2.111-7.149,10.172-6.809,14.052-1.492c2.127,2.914,1.002,6.83,0.237,10.023l-0.11,0.459l-0.919-0.22l0.11-0.46
		c0.68-2.839,1.816-6.646-0.081-9.245c-3.414-4.678-10.496-5.187-12.383,1.203c-1.088,3.686,0.885,8.484,5.245,8.045
		c1.635-0.35,3.27-1.184,3.949-2.804c0.493-1.18,0.341-2.544-0.381-3.596c-0.852-1.243-4.626-2.583-4.45,0.011
		c0.055,0.818,0.783,1.372,1.537,1.526l0.462,0.095l-0.189,0.925L191.798,59.495z"/>
</g>
</svg>