<!-- Generator: Adobe Illustrator 19.0.0, SVG Export Plug-In  -->
<svg version="1.1"
	 xmlns="http://www.w3.org/2000/svg" xmlns:xlink="http://www.w3.org/1999/xlink" xmlns:a="http://ns.adobe.com/AdobeSVGViewerExtensions/3.0/"
	 x="0px" y="0px" width="298.831px" height="90.787px" viewBox="0 0 298.831 90.787"
	 style="enable-background:new 0 0 298.831 90.787;" xml:space="preserve">
<style type="text/css">
	.st0{fill:#FFFFFF;}
</style>
<defs>
</defs>
<g id="XMLID_15_">
	<path id="XMLID_27_" class="st0" d="M49.337,19.305C41.766,6.42,25.459,4.381,19.562,21.053
		c-2.548,7.207-3.422,16.598-2.257,24.825c1.092,7.862,5.897,20.821,16.235,18.2c4.514-1.165,7.498-5.824,9.027-10.92
		c2.33-7.935,1.31-16.671-0.146-21.476c-1.674-5.46-5.023-8.372-8.518-8.154c-8.226,0.51-9.682,14.56-7.28,20.457
		c3.203,7.79,13.031,2.038,6.625-5.096c0.728,6.334-2.402,5.314-3.64,2.33c-3.422-8.299,5.97-15.507,8.736-5.533
		c1.674,5.97,1.383,19.365-5.314,22.495c-4.659,2.111-9.391-5.897-10.41-15.506c-0.801-7.353-0.073-20.748,7.207-24.971
		c3.494-2.038,7.353-0.801,10.265,1.893c6.042,5.606,9.1,18.637,6.625,34.071c-5.242,30.649-16.453,32.032-31.086,19.074
		c-0.218-15.215-0.655-30.431-3.276-42.588c-1.602-4.368-5.97-3.349-5.678,1.747c0.728,12.74,3.786,25.99,2.475,38.366
		c-18.346,5.242-5.46,26.354,6.916,11.575c8.154,5.46,14.779,7.28,20.093,5.678c12.594-3.931,17.399-32.323,17.836-43.899
		C54.288,35.54,53.487,26.294,49.337,19.305z M8.569,79.439c-1.019,0.51-0.946,2.33-3.13,1.092c-2.839-3.276,2.912-6.843,4.95-3.276
		C11.336,78.347,9.88,78.711,8.569,79.439z"/>
	<path id="XMLID_26_" class="st0" d="M227.844,43.184c2.694,0.582,5.46-1.82,6.261-5.46c0.801-3.567-0.728-6.989-3.349-7.571
		c-2.694-0.582-5.46,1.893-6.261,5.46C223.694,39.18,225.223,42.602,227.844,43.184z"/>
	<path id="XMLID_22_" class="st0" d="M140.119,73.25c-5.46,7.426-7.717,5.606-6.625-5.678c0.218-2.402,0.655-8.081,1.82-9.974
		c0.801-1.383,1.966-1.893,2.33-2.621c0.655-1.238-0.582-1.966-5.897-0.146c-0.437,0.146-0.364,0.582-0.51,1.238
		c-1.456,13.614-4.004,21.767-8.299,22.35c-5.314,0.728-4.878-4.878-4.659-8.445c0.364-6.625,2.621-12.813,8.226-18.127
		c2.548-2.694,6.406,0.437,0.874,3.713c7.353-0.582,7.498-6.77,5.314-10.046c-1.529-2.33-5.314-1.092-8.081,0.582
		c-1.893,1.092-3.494,2.475-4.805,4.004c-4.586,5.242-6.77,12.667-7.717,19.438c-0.51,3.64-1.092,6.334-4.805,6.261
		c-2.985-0.073-2.402-0.51-2.475-3.13l-0.218-10.629c-0.073-3.276-0.218-6.406-1.747-9.391c-1.602-3.058-2.839-4.004-6.188-3.203
		c-3.858,0.946-3.203,1.82-5.023-1.674c-2.402-4.586-6.77-4.222-11.575,1.019c-0.364,0.364-1.529,1.529-1.966,0.728
		c-1.893-3.276-5.46-5.824-9.61-4.659c-6.334,1.82-9.828,9.828-12.23,15.361C44.969,86.063,57.2,91.669,66.518,85.117
		c7.426-5.242,7.571-12.376,9.828-20.384c0.801-2.985,1.602-5.242,2.766-7.353c2.475-4.514,7.134-5.242,6.916-1.383
		c0.655,8.954-1.529,18.2,1.092,26.936c0.51,1.82,1.019,5.387,3.494,3.64c1.31-0.874,2.621-2.839,2.694-4.514
		c0.146-10.92-2.766-13.541-1.383-18.127c1.456-4.878,5.97-7.207,6.115-1.966l0.946,15.361c0.437,9.318,8.372,10.556,12.012,2.402
		c0.728-1.602,1.82-1.31,2.402,0.218c2.038,5.387,6.334,7.353,11.211,3.276c6.989-6.625,4.95,6.989,11.575-1.602
		c1.456-1.893,3.058-3.567,5.314-7.134C142.231,73.105,141.139,72.013,140.119,73.25z M61.131,62.112
		c1.238-1.602,2.257,1.31,4.295,1.82c2.111,0.51,5.169-1.31,5.606,0.582C68.265,89.267,50.866,84.826,61.131,62.112z M68.702,57.453
		c-1.529,0-2.839-1.238-2.839-2.694c0-1.456,1.31-2.694,2.839-2.694s2.839,1.238,2.839,2.694
		C71.541,56.215,70.304,57.453,68.702,57.453z"/>
	<path id="XMLID_19_" class="st0" d="M165.163,38.161c-2.912,5.824-3.786,12.886-2.621,19.729
		c1.092,6.552,5.387,18.782,15.725,16.598c4.514-0.946,7.644-5.824,9.173-10.119c2.33-6.698,1.456-13.978,0-17.982
		c-1.602-4.586-4.732-6.406-8.226-6.188c-8.226,0.437-10.265,12.303-7.79,17.254c1.602,3.203,5.023,4.659,7.134,3.203
		c2.548-1.747,3.494-7.134-0.291-9.391c0.801,7.062-2.621,5.751-3.713,3.203c-2.839-6.916,6.115-13.322,8.882-4.95
		c1.602,5.023,1.019,15.87-5.533,18.346c-4.659,1.82-9.1-4.878-10.119-12.886c-0.801-6.188,0.146-17.399,7.426-20.966
		c3.494-1.747,7.353-0.655,10.265,1.602c6.042,4.659,8.154,14.123,5.678,27.082c-3.13,15.142-11.138,18.637-17.836,17.472
		c-11.502-2.111-16.089-18.273-16.744-28.247c-0.655-9.828,2.33-19.001,9.027-27.664c4.514,4.15,10.556,2.766,12.813-0.946
		c2.111-3.422,0.291-9.901-4.222-9.682c-2.766,0.073-5.533,1.82-5.897-1.747c-1.456-5.314,9.027-7.644,6.916-1.092
		c9.901-6.261,2.402-13.905-7.134-9.464c-8.736,4.077-6.552,11.575-4.732,17.035c-4.15,4.586-7.353,9.464-9.61,14.56
		c-3.494,7.79-3.349,15.87-3.13,23.369c0.364,10.41,2.33,19.729,7.862,25.699c5.751,6.188,13.614,8.809,22.495,5.387
		c12.594-3.276,16.598-21.695,17.035-31.377c0.291-6.77-0.073-13.759-4.222-19.656C186.129,25.566,171.86,24.62,165.163,38.161z
		 M170.768,18.359c2.475-0.582,5.678-1.893,4.514,1.31c-0.582,1.602-0.874,1.602-2.475,1.747c-2.548,0.218-3.567-0.291-4.004-1.383
		C168.002,17.995,169.385,18.65,170.768,18.359z"/>
	<path id="XMLID_16_" class="st0" d="M297.077,74.415c-2.621,7.498-6.042,9.464-6.625,6.261c-0.291-1.456-0.218-4.15,0.146-7.935
		c0.728-7.79-0.073-4.586,4.514-13.322c0.728-1.383-2.257-2.402-8.081-0.437c-0.437,0.146-0.364,0.655-0.51,1.383
		c-0.655,6.261-0.291,10.92-0.801,13.978c-0.728,4.077-2.475,5.387-5.169,5.751c-5.824,0.801-5.751-3.858-5.533-7.717
		c0.437-7.28,1.456-13.322,7.571-19.074c2.766-2.985,5.824,0.655,1.966,3.713c8.081-0.655,8.445-6.989,6.115-10.556
		c-1.747-2.621-7.207-1.456-10.192,0.364c-8.226,4.95-11.575,16.162-12.813,24.971c-0.582,4.004-2.184,10.483-6.261,10.483
		c-11.939,0.946,6.989-5.242-11.721-28.392c-0.364-0.51-0.801-0.946-0.437-2.402c2.475-2.694,2.985-5.242,2.111-7.498
		c-1.019-2.694-2.985-5.023-5.387-4.659c-1.966,0.291-3.203,1.602-4.004,3.13c-1.383,2.548-1.747,5.678-0.437,8.518
		c2.257,5.97-2.694,15.434-11.721,27.519c-2.985,4.077-6.261,0.946-5.096-3.64l4.222-23.223c0.874-2.766-1.092-2.475-2.985-2.766
		c-1.82-0.291-2.839-0.218-4.077,1.602c-2.839,6.188-3.858,13.177-4.805,20.238c-2.621,13.978-8.954,10.192-9.464-6.479
		c-0.218-5.97,3.349-8.299,5.97-13.031c12.886-22.568,6.042-44.263-4.95-33.343c-5.678,5.314-7.207,19.438-7.426,33.488
		c-0.218,21.112,4.586,42.079,14.487,33.852c2.33-2.184,4.222-1.82,5.824,0.364c2.33,2.257,6.406,2.475,9.537-0.437
		c6.406-5.824,8.954-13.978,13.468-20.966c1.602-3.349,3.13-2.402,4.732-0.291c5.387,6.479,4.368,13.25,1.602,16.016
		c-2.402,2.33-6.115,1.456-7.935-1.529c-1.238-2.257-2.839-1.31-2.839,1.456c0.291,7.79,5.678,12.813,12.303,8.154
		c1.529-1.31,2.912-1.383,4.222,0c3.931,4.222,6.77,3.276,10.265,0.073c2.912-2.694,2.038-1.456,5.46,0.582
		c3.494,2.038,6.334,0.655,9.537-2.184c2.621-2.985,3.931-0.437,5.751,1.165c3.713,3.349,7.353,0.146,8.882-3.494
		c0.874-2.038,1.602-4.805,2.111-8.299C299.407,74.27,297.878,72.45,297.077,74.415z M215.249,22.581
		c-0.728,7.353,2.912,17.69-7.207,26.135C210.153,34.084,206.95,25.057,215.249,22.581z"/>
</g>
</svg>