<!-- Generator: Adobe Illustrator 19.0.0, SVG Export Plug-In  -->
<svg version="1.1"
	 xmlns="http://www.w3.org/2000/svg" xmlns:xlink="http://www.w3.org/1999/xlink" xmlns:a="http://ns.adobe.com/AdobeSVGViewerExtensions/3.0/"
	 x="0px" y="0px" width="80.3px" height="80.3px" viewBox="0 0 80.3 80.3" style="enable-background:new 0 0 80.3 80.3;"
	 xml:space="preserve">
<style type="text/css">
	.st0{fill:#FFFFFF;}
</style>
<defs>
</defs>
<path class="st0" d="M68.098,0H12.202C5.463,0,0,5.463,0,12.202v55.896C0,74.837,5.463,80.3,12.202,80.3H42.95V49.616H32.623V37.658
	H42.95v-8.818c0-10.235,6.247-15.809,15.378-15.809c4.378,0,8.134,0.326,9.226,0.472v10.695L61.227,24.2
	c-4.964,0-5.93,2.359-5.93,5.822v7.635h11.842l-1.542,11.959h-10.3V80.3h12.801c6.739,0,12.202-5.463,12.202-12.202V12.202
	C80.3,5.463,74.837,0,68.098,0z"/>
</svg>